<svg width="36" height="36" viewBox="0 0 36 36" fill="none" xmlns="http://www.w3.org/2000/svg">
<path fill-rule="evenodd" clip-rule="evenodd" d="M19.5 28.5V34.5H16.5V28.5H19.5ZM26.4852 24.3639L30.7279 28.6066L28.6066 30.7279L24.3639 26.4853L26.4852 24.3639ZM9.51469 24.3639L11.636 26.4853L7.39336 30.7279L5.27203 28.6066L9.51469 24.3639ZM18 9.79828C22.5297 9.79828 26.2017 13.4703 26.2017 18C26.2017 22.5297 22.5297 26.2018 18 26.2018C16.9224 26.2038 15.8549 25.9931 14.8589 25.5816C13.8629 25.1702 12.9579 24.5661 12.1959 23.8041C11.4339 23.0421 10.8298 22.1371 10.4184 21.1411C10.0069 20.1451 9.79615 19.0777 9.79819 18C9.79819 13.4703 13.4703 9.79828 18 9.79828ZM18 12.7982C15.1271 12.7982 12.7982 15.1272 12.7982 18.0057C12.7969 18.6884 12.9304 19.3647 13.1911 19.9957C13.4517 20.6267 13.8344 21.2 14.3172 21.6828C15.2922 22.6578 16.6153 23.2043 18 23.2017V12.7982ZM34.5 16.5V19.5H28.5V16.5H34.5ZM7.49995 16.5V19.5H1.49998V16.5H7.49995ZM7.39336 5.27206L11.636 9.51471L9.51469 11.636L5.27203 7.39338L7.39336 5.27206ZM28.6066 5.27206L30.7279 7.39338L26.4852 11.636L24.3639 9.51471L28.6066 5.27206ZM19.4999 1.5V7.49998H16.4999V1.5H19.4999Z" fill="#A26B6B"/>
</svg>
